<?xml version="1.0" encoding="utf-8"?>
<!-- Generator: Adobe Illustrator 24.2.1, SVG Export Plug-In . SVG Version: 6.00 Build 0)  -->
<svg version="1.1" id="图层_1" xmlns="http://www.w3.org/2000/svg" xmlns:xlink="http://www.w3.org/1999/xlink" x="0px" y="0px"
	 viewBox="0 0 174 35" style="enable-background:new 0 0 174 35;" xml:space="preserve">
<style type="text/css">
	.st0{fill-rule:evenodd;clip-rule:evenodd;fill:#3E3A39;}
	.st1{fill-rule:evenodd;clip-rule:evenodd;fill:#C80A14;}
</style>
<g>
	<g>
		<path class="st0" d="M18.8,24.3H20v4.1h-1.2V24.3z"/>
		<path class="st0" d="M33.1,24.3v1.6h-3.9v-1.6H28v4.1h1.2v-1.6h3.9v1.6h1.2v-1.6v-1v-1.6h-1.2V24.3z"/>
		<path class="st0" d="M22,28.4v-2.3c0-0.4,0.3-0.8,0.8-0.8h2.3c0.4,0,0.8,0.3,0.8,0.8v2.3h1.2V26c0-1-0.8-1.7-1.7-1.7h-2.9
			c-1,0-1.7,0.8-1.7,1.7v2.4H22z"/>
		<path class="st0" d="M43.6,28.4v-2.3c0-0.4,0.3-0.8,0.8-0.8h2.3c0.4,0,0.8,0.3,0.8,0.8v2.3h1.2V26c0-1-0.8-1.7-1.7-1.7h-2.9
			c-1,0-1.7,0.8-1.7,1.7v2.4H43.6z"/>
		<path class="st0" d="M39.8,24.3h-2.9c-1,0-1.7,0.8-1.7,1.7v0.1v0.2v0.3c0,1,0.8,1.7,1.7,1.7h2.9c1,0,1.7-0.8,1.7-1.7v-0.3v-0.2V26
			C41.5,25.1,40.7,24.3,39.8,24.3z M40.3,26.4v0.3c0,0.4-0.3,0.8-0.8,0.8h-2.3c-0.4,0-0.8-0.3-0.8-0.8v-0.3v-0.2v-0.1
			c0-0.4,0.3-0.8,0.8-0.8h2.3c0.4,0,0.8,0.3,0.8,0.8v0.1V26.4z"/>
		<path class="st0" d="M17.9,27.1v-2.8h-1.1l0,0l0,0V27v0.1c0,0-0.1,0.1-0.2,0l-1.1-1.7l-0.3-0.5c-0.1-0.1-0.2-0.2-0.3-0.2
			s-0.2,0.1-0.3,0.2l-0.3,0.5L13,27.2c-0.1,0.1-0.2,0.1-0.2,0s0-0.1,0-0.1v-2.7l0,0l0,0h-1.1v2.8l0,0c0,0.9,0.5,1.3,1.3,1.3
			c0.3,0,0.7-0.2,0.9-0.5l0.9-1.4l0.1-0.1c0.1,0,0.1,0,0.1,0.1l0.9,1.4c0.2,0.3,0.5,0.5,0.9,0.5C17.4,28.4,17.9,28,17.9,27.1z"/>
		<path class="st0" d="M55.8,25.9h-4.4v1h3.2c-0.1,0.3-0.4,0.6-0.8,0.6h-2.3c-0.4,0-0.8-0.3-0.8-0.8v-0.3v-0.3
			c0-0.4,0.3-0.8,0.8-0.8h0.2h2.1h1.8c-0.3-0.6-0.9-1-1.5-1h-2.9c-1,0-1.7,0.8-1.7,1.7v0.1v0.2v0.3c0,1,0.8,1.7,1.7,1.7h2.9
			c0.9,0,1.6-0.7,1.7-1.6V25.9L55.8,25.9z"/>
	</g>
	<path class="st1" d="M49.3,16.5c-0.7,1.4-2.1,2.4-3.8,2.4c-1,0-2.1-0.4-3-1.1c-4-2.8-7.3-10.3-8.7-13.7c-1.3,3.4-4.7,10.9-8.7,13.7
		c-1,0.7-2,1.1-3,1.1c-1.7,0-3.1-1-3.8-2.4H7c2.6,3.1,6.3,5.1,10.8,5.1s8.2-1.4,10.7-3.8h5.3h5.3c2.5,2.3,6.2,3.8,10.7,3.8
		s8.2-2,10.8-5.1H49.3z"/>
</g>
</svg>
